<?xml version="1.0" encoding="utf-8"?>
<!-- Generator: Adobe Illustrator 22.1.0, SVG Export Plug-In . SVG Version: 6.00 Build 0)  -->
<svg version="1.1" id="Capa_1" xmlns="http://www.w3.org/2000/svg" xmlns:xlink="http://www.w3.org/1999/xlink" x="0px" y="0px"
	 viewBox="0 0 150 150" style="enable-background:new 0 0 150 150;" xml:space="preserve">
<style type="text/css">
	.st0{fill:#0C3572;}
	.st1{fill:#11C16D;}
	.st2{opacity:0.35;fill:none;stroke:#11C16D;stroke-width:2.32;stroke-miterlimit:10;}
	.st3{fill:#FFFFFF;}
	.st4{fill:none;}
</style>
<path class="st0" d="M75.5,3c40,0,72.5,32.5,72.5,72.5S115.6,148,75.5,148"/>
<circle class="st1" cx="75.5" cy="75.5" r="63.8"/>
<circle class="st2" cx="75.5" cy="75.5" r="56.2"/>
<g>
	<path class="st3" d="M98,39.2H53.1c-4.2,0-7.7,3.4-7.7,7.7v57.2c0,4.2,3.4,7.7,7.7,7.7H98c4.2,0,7.7-3.4,7.7-7.7V46.9
		C105.6,42.7,102.2,39.2,98,39.2z M64.1,52.8h22.8c0.9,0,1.6-0.7,1.6-1.6v-2.3h1.4c1.1,0,2,0.9,2,2v3.6c0,1.1-0.9,2-2,2H61.1
		c-1.1,0-2-0.9-2-2v-3.6c0-1.1,0.9-2,2-2h1.4v2.3C62.5,52.1,63.2,52.8,64.1,52.8z M85.3,42.4v7.1H65.7v-7.1H85.3z M102.4,104.1
		c0,2.5-2,4.5-4.5,4.5H53.1c-2.5,0-4.5-2-4.5-4.5V46.9c0-2.5,2-4.5,4.5-4.5h9.4v3.2h-1.4c-2.8,0-5.2,2.3-5.2,5.2v3.6
		c0,2.8,2.3,5.2,5.2,5.2h28.8c2.8,0,5.2-2.3,5.2-5.2v-3.6c0-2.8-2.3-5.2-5.2-5.2h-1.4v-3.2H98c2.5,0,4.5,2,4.5,4.5V104.1z"/>
	<path class="st3" d="M90.1,68.7H73.7c-0.9,0-1.6,0.7-1.6,1.6c0,0.9,0.7,1.6,1.6,1.6h16.4c0.9,0,1.6-0.7,1.6-1.6
		C91.7,69.4,90.9,68.7,90.1,68.7z"/>
	<path class="st3" d="M90.1,81.1H73.7c-0.9,0-1.6,0.7-1.6,1.6c0,0.9,0.7,1.6,1.6,1.6h16.4c0.9,0,1.6-0.7,1.6-1.6
		C91.7,81.8,90.9,81.1,90.1,81.1z"/>
	<path class="st3" d="M90.1,93.5H73.7c-0.9,0-1.6,0.7-1.6,1.6c0,0.9,0.7,1.6,1.6,1.6h16.4c0.9,0,1.6-0.7,1.6-1.6
		C91.7,94.2,90.9,93.5,90.1,93.5z"/>
	<circle class="st3" cx="62.6" cy="70.3" r="3.2"/>
	<circle class="st3" cx="62.6" cy="82.7" r="3.2"/>
	<circle class="st3" cx="62.6" cy="95.1" r="3.2"/>
</g>
<rect x="3" y="3" class="st4" width="145" height="145"/>
</svg>
