<?xml version="1.0" encoding="utf-8"?>
<!-- Generator: Adobe Illustrator 22.1.0, SVG Export Plug-In . SVG Version: 6.00 Build 0)  -->
<svg version="1.1" id="Capa_1" xmlns="http://www.w3.org/2000/svg" xmlns:xlink="http://www.w3.org/1999/xlink" x="0px" y="0px"
	 viewBox="0 0 150 150" style="enable-background:new 0 0 150 150;" xml:space="preserve">
<style type="text/css">
	.st0{fill:#0C3572;}
	.st1{fill:#11C16D;}
	.st2{fill:#FFFFFF;}
	.st3{opacity:0.35;fill:none;stroke:#11C16D;stroke-width:2.32;stroke-miterlimit:10;}
	.st4{fill:none;}
</style>
<path class="st0" d="M148.5,70.2c0,40-32.5,72.5-72.5,72.5S3.5,110.2,3.5,70.2"/>
<circle class="st1" cx="76" cy="70.2" r="63.8"/>
<g>
	<path class="st2" d="M65.7,75.3c-1.3,0-2.4-1.1-2.4-2.4c0-1-0.8-1.8-1.8-1.8c-1,0-1.8,0.8-1.8,1.8c0,3.3,2.7,6,6,6
		c1,0,1.8-0.8,1.8-1.8S66.7,75.3,65.7,75.3z"/>
	<path class="st2" d="M112,57.2l-8.4-5.8V49c0-0.9-0.7-1.6-1.6-1.6H90.1C85.4,41,76.9,37,66.9,37c-14.2,0-25.3,10.1-25.3,23
		c0,3.6,1.3,7.4,4.1,11.4c0.1,0.2,0.3,0.4,0.5,0.7c1.6,2.2,4.5,6.2,4.5,13.6c0,5.5,0,20.5,0,20.6c0,1,0.8,1.8,1.8,1.8h25.6
		c1,0,1.8-0.8,1.8-1.8v-5.5H102c0.9,0,1.6-0.7,1.6-1.6v-8.5c0-0.9-0.7-1.6-1.6-1.6h-9.1v-7.5h3.5c0.9,0,1.6-0.4,2-1
		c0.6-0.9,0.3-1.9,0.1-2.3l-4.7-12.8c0.3-1.6,0.5-3.9,0.5-5.5c0-0.3,0-0.5,0-0.8h7.8c0.9,0,1.6-0.7,1.6-1.6v-1.8l5.6,3.9v8.5
		c0,1,0.8,1.8,1.8,1.8c1,0,1.8-0.8,1.8-1.8v-9.4C112.8,58.1,112.5,57.5,112,57.2z M76.3,104.5H54.2c0-4.2,0-14.5,0-18.8
		c0-8.6-3.5-13.4-5.1-15.7c-0.2-0.2-0.3-0.4-0.4-0.6c-2.3-3.4-3.5-6.5-3.5-9.4c0-10.9,9.6-19.5,21.8-19.5c7.6,0,14.2,2.6,18.5,6.9
		H72.5c-0.9,0-1.6,0.7-1.6,1.6v50.2c0,0.9,0.7,1.6,1.6,1.6h3.8V104.5z M90.7,60c0,1.5-0.2,3.9-0.5,5.1c-0.1,0.4-0.1,0.8,0.1,1.1
		l4.4,11.8h-3.5c-1,0-1.8,0.8-1.8,1.8v9.2h-6.7V59.2h8.1C90.7,59.4,90.7,59.7,90.7,60z M100.4,56H81c-0.9,0-1.6,0.7-1.6,1.6v33.1
		c0,0.9,0.7,1.6,1.6,1.6h19.4v5.3H74.1v-47h26.4V56z"/>
</g>
<circle class="st3" cx="76" cy="71.5" r="56.2"/>
<rect x="3.5" y="2" class="st4" width="145" height="145"/>
</svg>
