<?xml version="1.0" encoding="utf-8"?>
<!-- Generator: Adobe Illustrator 22.1.0, SVG Export Plug-In . SVG Version: 6.00 Build 0)  -->
<svg version="1.1" id="Capa_1" xmlns="http://www.w3.org/2000/svg" xmlns:xlink="http://www.w3.org/1999/xlink" x="0px" y="0px"
	 viewBox="0 0 150 150" style="enable-background:new 0 0 150 150;" xml:space="preserve">
<style type="text/css">
	.st0{fill:#0C3572;}
	.st1{fill:#11C16D;}
	.st2{opacity:0.35;fill:none;stroke:#11C16D;stroke-width:2.32;stroke-miterlimit:10;}
	.st3{fill:#FFFFFF;}
	.st4{fill:none;}
</style>
<path class="st0" d="M125.1,21.2c28.3,28.3,28.3,74.2,0,102.5s-74.2,28.3-102.5,0"/>
<circle class="st1" cx="73.8" cy="72.4" r="63.8"/>
<circle class="st2" cx="74.6" cy="73.2" r="56.2"/>
<g>
	<path class="st3" d="M93.2,69.4l1.2-1.5c0.6-0.7,0.5-1.7-0.2-2.3c-0.7-0.6-1.7-0.5-2.3,0.2l-1.3,1.6c-1.4-1-3.1-1.9-4.8-2.8
		l1.2-2.7c0.3-0.8,0-1.8-0.8-2.1c-0.8-0.3-1.8,0-2.1,0.8l-1.2,2.8c-1.7-0.6-3.6-1-5.5-1.1V59c0-0.9-0.7-1.6-1.6-1.6
		c-0.9,0-1.6,0.7-1.6,1.6v3.3c-1.9,0.2-3.7,0.6-5.5,1.1l-1.2-2.8c-0.3-0.8-1.3-1.2-2.1-0.8c-0.8,0.3-1.2,1.3-0.8,2.1l1.2,2.7
		c-1.8,0.8-3.4,1.8-4.8,2.8l-1.3-1.6c-0.6-0.7-1.6-0.8-2.3-0.2c-0.7,0.6-0.8,1.6-0.2,2.3l1.2,1.5c-2.9,2.3-4.6,4.3-4.8,4.5
		c-0.5,0.6-0.5,1.5,0,2.1c0.4,0.5,10,11.6,22.2,11.6C88,87.6,97.6,76.4,98,76c0.5-0.6,0.5-1.5,0-2.1C97.8,73.7,96,71.7,93.2,69.4z
		 M75.8,84.4c-8.7,0-16.2-6.8-18.8-9.5c2.6-2.6,10.1-9.5,18.8-9.5c8.7,0,16.2,6.8,18.8,9.5C92,77.6,84.4,84.4,75.8,84.4z"/>
	<path class="st3" d="M75.8,68.7c-3.4,0-6.3,2.8-6.3,6.3c0,3.4,2.8,6.3,6.3,6.3c3.4,0,6.3-2.8,6.3-6.3C82,71.5,79.2,68.7,75.8,68.7z
		 M75.8,78c-1.7,0-3-1.4-3-3c0-1.7,1.4-3.1,3-3.1c1.7,0,3,1.4,3,3.1C78.8,76.6,77.4,78,75.8,78z"/>
	<path class="st3" d="M110.4,73.3h-3V53.4c0-5.6-4.6-10.2-10.2-10.2H77.4v-3c0-0.9-0.7-1.6-1.6-1.6c-0.9,0-1.6,0.7-1.6,1.6v3H54.3
		c-5.6,0-10.2,4.6-10.2,10.2v19.9h-3c-0.9,0-1.6,0.7-1.6,1.6c0,0.9,0.7,1.6,1.6,1.6h3v19.9c0,5.6,4.6,10.2,10.2,10.2h19.9v3
		c0,0.9,0.7,1.6,1.6,1.6c0.9,0,1.6-0.7,1.6-1.6v-3h19.9c5.6,0,10.2-4.6,10.2-10.2V76.5h3c0.9,0,1.6-0.7,1.6-1.6
		C112,74,111.3,73.3,110.4,73.3z M104.3,96.4c0,3.9-3.1,7-7,7h-43c-3.9,0-7-3.1-7-7v-43c0-3.9,3.1-7,7-7h43c3.9,0,7,3.1,7,7V96.4z"
		/>
</g>
<rect x="1.3" y="3" class="st4" width="145" height="145"/>
</svg>
