<?xml version="1.0" encoding="utf-8"?>
<!-- Generator: Adobe Illustrator 22.1.0, SVG Export Plug-In . SVG Version: 6.00 Build 0)  -->
<svg version="1.1" id="Capa_1" xmlns="http://www.w3.org/2000/svg" xmlns:xlink="http://www.w3.org/1999/xlink" x="0px" y="0px"
	 viewBox="0 0 150 150" style="enable-background:new 0 0 150 150;" xml:space="preserve">
<style type="text/css">
	.st0{fill:#0C3572;}
	.st1{fill:#11C16D;}
	.st2{fill:#FFFFFF;}
	.st3{opacity:0.35;fill:none;stroke:#11C16D;stroke-width:2.32;stroke-miterlimit:10;}
	.st4{fill:none;}
</style>
<path class="st0" d="M75.9,147c-40,0-72.5-32.5-72.5-72.5S35.9,2,75.9,2"/>
<circle class="st1" cx="75.9" cy="74.5" r="63.8"/>
<g>
	<path class="st2" d="M96.1,79.5c-8.4,0-15.2,6.8-15.2,15.2c0,8.4,6.8,15.2,15.2,15.2c8.4,0,15.2-6.8,15.2-15.2
		C111.3,86.3,104.5,79.5,96.1,79.5z M96.1,106.7c-6.6,0-12-5.4-12-12c0-6.6,5.4-12,12-12s12,5.4,12,12
		C108.1,101.3,102.7,106.7,96.1,106.7z"/>
	<path class="st2" d="M96.1,86.6c-4.5,0-8.1,3.6-8.1,8.1c0,0.9,0.7,1.6,1.6,1.6c0.9,0,1.6-0.7,1.6-1.6c0-2.7,2.2-4.9,4.9-4.9
		c0.9,0,1.6-0.7,1.6-1.6S97,86.6,96.1,86.6z"/>
	<path class="st2" d="M69.5,94c-1.8,0-3.2,1.4-3.2,3.2c0,1.8,1.4,3.2,3.2,3.2s3.2-1.4,3.2-3.2C72.7,95.4,71.3,94,69.5,94z"/>
	<path class="st2" d="M56.6,94c-1.8,0-3.2,1.4-3.2,3.2c0,1.8,1.4,3.2,3.2,3.2c1.8,0,3.2-1.4,3.2-3.2C59.8,95.4,58.4,94,56.6,94z"/>
	<path class="st2" d="M43.7,94c-1.8,0-3.2,1.4-3.2,3.2c0,1.8,1.4,3.2,3.2,3.2c1.8,0,3.2-1.4,3.2-3.2C46.9,95.4,45.5,94,43.7,94z"/>
	<path class="st2" d="M62.9,66.3c0,7.2,5.9,13,13,13c7.2,0,13-5.9,13-13c0-7.2-5.9-13-13-13C68.7,53.2,62.9,59.1,62.9,66.3z
		 M85.7,66.3c0,5.4-4.4,9.8-9.8,9.8c-5.4,0-9.8-4.4-9.8-9.8c0-5.4,4.4-9.8,9.8-9.8C81.3,56.4,85.7,60.9,85.7,66.3z"/>
	<path class="st2" d="M70,66.3c0,3.3,2.7,5.9,5.9,5.9c3.3,0,5.9-2.7,5.9-5.9c0-3.3-2.7-5.9-5.9-5.9C72.6,60.4,70,63,70,66.3z
		 M78.6,66.3c0,1.5-1.2,2.7-2.7,2.7s-2.7-1.2-2.7-2.7c0-1.5,1.2-2.7,2.7-2.7S78.6,64.8,78.6,66.3z"/>
	<path class="st2" d="M78.3,82.4c-0.8,0.1-1.6,0.1-2.4,0.1c-15.1,0-28.1-12.5-31.6-16.2c3.5-3.7,16.5-16.2,31.6-16.2
		c15.1,0,28.1,12.5,31.6,16.2c-1.4,1.4-4.1,4.2-7.8,6.9c-0.7,0.5-0.8,1.5-0.3,2.2c0.5,0.7,1.5,0.8,2.2,0.3c5.7-4.3,9.1-8.3,9.2-8.5
		c0.5-0.6,0.5-1.5,0-2.1c-0.3-0.3-3.4-3.9-8.3-7.8l2.5-3.1c0.6-0.7,0.5-1.7-0.2-2.3c-0.7-0.6-1.7-0.5-2.3,0.2l-2.6,3.2
		c-2.7-1.9-5.8-3.8-9.2-5.3L93,45c0.3-0.8,0-1.8-0.8-2.1c-0.8-0.3-1.8,0-2.1,0.8l-2.3,5.3c-3.2-1.2-6.7-1.9-10.3-2.1v-6.2
		c0-0.9-0.7-1.6-1.6-1.6c-0.9,0-1.6,0.7-1.6,1.6V47c-3.6,0.2-7.1,1-10.3,2.1l-2.3-5.3c-0.3-0.8-1.3-1.2-2.1-0.8
		c-0.8,0.3-1.2,1.3-0.8,2.1l2.2,5.3c-3.4,1.5-6.5,3.4-9.2,5.3l-2.6-3.2c-0.6-0.7-1.6-0.8-2.3-0.2c-0.7,0.6-0.8,1.6-0.2,2.3l2.5,3.1
		c-5,3.9-8.1,7.5-8.3,7.8c-0.5,0.6-0.5,1.5,0,2.1c0.6,0.7,15.8,18.4,35,18.4c0.9,0,1.7,0,2.6-0.1c0.9-0.1,1.5-0.8,1.5-1.7
		C79.9,83,79.2,82.3,78.3,82.4z"/>
</g>
<circle class="st3" cx="75.9" cy="74.5" r="56.2"/>
<rect x="3.4" y="2" class="st4" width="145" height="145"/>
</svg>
