<?xml version="1.0" encoding="utf-8"?>
<!-- Generator: Adobe Illustrator 22.1.0, SVG Export Plug-In . SVG Version: 6.00 Build 0)  -->
<svg version="1.1" id="Capa_1" xmlns="http://www.w3.org/2000/svg" xmlns:xlink="http://www.w3.org/1999/xlink" x="0px" y="0px"
	 viewBox="0 0 150 150" style="enable-background:new 0 0 150 150;" xml:space="preserve">
<style type="text/css">
	.st0{fill:#0C3572;}
	.st1{fill:#11C16D;}
	.st2{fill:#FFFFFF;}
	.st3{opacity:0.35;fill:none;stroke:#11C16D;stroke-width:2.32;stroke-miterlimit:10;}
	.st4{fill:none;}
</style>
<path class="st0" d="M127.2,122.7C98.9,151,53,151,24.7,122.7s-28.3-74.2,0-102.5"/>
<circle class="st1" cx="76" cy="71.4" r="63.8"/>
<g>
	<path class="st2" d="M111.2,65.9l-9.4-20.5c0,0,0-0.1-0.1-0.1c-1.5-2.8-4.4-4.6-7.6-4.6c-2.5,0-4.8,1.1-6.4,3
		c-0.6,0.7-0.5,1.7,0.2,2.3c0.7,0.6,1.7,0.5,2.3-0.2c1-1.2,2.5-1.8,4-1.8c2,0,3.8,1.1,4.7,2.8l8.4,18.2h-2.6
		c-2.4-3.4-6.3-5.7-10.8-5.7c-4.3,0-8.1,2.1-10.5,5.3C81.2,62.9,78.7,62,76,62c-2.7,0-5.3,0.9-7.4,2.5c-2.4-3.2-6.2-5.3-10.5-5.3
		c-4.5,0-8.4,2.3-10.8,5.7h-2.6l8.4-18.2c0.9-1.7,2.7-2.8,4.7-2.8c1.5,0,3,0.7,4,1.8c0.6,0.7,1.6,0.7,2.3,0.2
		c0.7-0.6,0.7-1.6,0.2-2.3c-1.6-1.9-4-3-6.4-3c-3.2,0-6.1,1.8-7.6,4.6c0,0,0,0.1-0.1,0.1l-9.4,20.5c-0.2,0.5-0.2,1.1,0.1,1.5
		c0.3,0.5,0.8,0.7,1.3,0.7h3.5c-0.4,1.3-0.7,2.7-0.7,4.1c0,7.2,5.9,13.1,13.1,13.1s13.1-5.9,13.1-13.1c0-1.8-0.3-3.4-1-5
		c3.3-2.8,8.3-2.8,11.6,0c-0.6,1.5-1,3.2-1,5c0,7.2,5.9,13.1,13.1,13.1c7.2,0,13.1-5.9,13.1-13.1c0-1.4-0.2-2.8-0.7-4.1h3.5
		c0.5,0,1.1-0.3,1.3-0.7C111.4,67,111.4,66.4,111.2,65.9z M58.1,82.2c-5.4,0-9.9-4.4-9.9-9.9s4.4-9.9,9.9-9.9s9.9,4.4,9.9,9.9
		S63.5,82.2,58.1,82.2z M93.8,82.2c-5.4,0-9.9-4.4-9.9-9.9s4.4-9.9,9.9-9.9c5.4,0,9.9,4.4,9.9,9.9S99.3,82.2,93.8,82.2z"/>
	<circle class="st2" cx="58.9" cy="108.3" r="3.2"/>
	<circle class="st2" cx="58.9" cy="97.2" r="3.2"/>
	<path class="st2" d="M94.6,95.6H71.9c-0.9,0-1.6,0.7-1.6,1.6c0,0.9,0.7,1.6,1.6,1.6h22.7c0.9,0,1.6-0.7,1.6-1.6
		C96.2,96.3,95.5,95.6,94.6,95.6z"/>
	<path class="st2" d="M94.6,106.7H71.9c-0.9,0-1.6,0.7-1.6,1.6c0,0.9,0.7,1.6,1.6,1.6h22.7c0.9,0,1.6-0.7,1.6-1.6
		C96.2,107.4,95.5,106.7,94.6,106.7z"/>
</g>
<circle class="st3" cx="76" cy="72.5" r="56.2"/>
<rect x="3.5" y="2" class="st4" width="145" height="145"/>
</svg>
