<?xml version="1.0" encoding="utf-8"?>
<!-- Generator: Adobe Illustrator 22.1.0, SVG Export Plug-In . SVG Version: 6.00 Build 0)  -->
<svg version="1.1" id="Capa_1" xmlns="http://www.w3.org/2000/svg" xmlns:xlink="http://www.w3.org/1999/xlink" x="0px" y="0px"
	 viewBox="0 0 130 72" style="enable-background:new 0 0 130 72;" xml:space="preserve">
<style type="text/css">
	.st0{fill:#FFFFFF;}
</style>
<g>
	<path class="st0" d="M49,65.1h17c0.4,0,0.8,0.1,1,0.4c0.3,0.3,0.4,0.7,0.4,1.1v3.6c0,0.4-0.1,0.8-0.4,1c-0.3,0.3-0.6,0.4-1.1,0.4
		H43.1c-1,0-1.4-0.5-1.4-1.4V32.7c0-0.4,0.1-0.8,0.4-1c0.3-0.3,0.6-0.4,1.1-0.4h4.4c0.4,0,0.8,0.1,1,0.4c0.3,0.2,0.4,0.6,0.4,1.1
		V65.1z"/>
	<path class="st0" d="M79.2,52.3h9.6c0.4,0,0.7,0.1,1,0.4c0.3,0.3,0.4,0.6,0.4,1.1v3.6c0,0.4-0.1,0.8-0.4,1c-0.3,0.3-0.6,0.4-1,0.4
		h-9.6v6.3h17c0.4,0,0.8,0.1,1,0.4c0.3,0.3,0.4,0.7,0.4,1.1v3.6c0,0.4-0.1,0.8-0.4,1c-0.3,0.3-0.6,0.4-1.1,0.4H73
		c-0.8,0-1.2-0.5-1.2-1.4V32.7c0-1,0.5-1.4,1.4-1.4h22.9c0.4,0,0.7,0.1,1,0.4c0.3,0.3,0.4,0.6,0.4,1v3.6c0,0.5-0.1,0.8-0.4,1.1
		c-0.3,0.3-0.6,0.4-1,0.4h-17V52.3z"/>
	<g>
		<polygon class="st0" points="38.8,0.3 35.1,0.3 34.2,3.9 37,3.9 		"/>
		<rect x="83.2" y="5.9" class="st0" width="2.2" height="17.7"/>
		<path class="st0" d="M128.2,12.7c-1-3.7-3.3-6.1-7-6.9c-3.7-0.8-6.8,0.4-9.2,3.4c-0.2,0.3-0.4,0.3-0.7,0.1c-1.9-1-3.8-1-5.7-0.1
			c-0.4,0.2-0.6,0.1-0.9-0.2c-2.2-2.6-5-3.8-8.4-3.4c-5.1,0.6-8.7,5.4-7.9,10.5c0.9,5.9,7.1,9.4,12.6,7.1c3-1.3,5-3.9,5.5-6.9
			l-2.3,0.1c-0.8,3-3.5,5.3-6.8,5.3c-3.8,0-7-3.2-7-7c0-3.8,3.2-7,7-7c3.6,0,6.7,2.9,6.9,6.4l2.2-0.1c-0.1-0.7-0.2-1.4-0.4-2.1
			c-0.1-0.5,0-0.6,0.4-0.8c1.2-0.5,2.4-0.5,3.5,0.1c0.4,0.2,0.5,0.3,0.3,0.8c-0.5,1.5-0.6,3-0.3,4.6c0.8,4.1,4.4,7.2,8.5,7.4
			c3.1,0.1,5.8-1.2,7.5-3.2v2.8h2.2v-8.1C128.4,14.2,128.3,13.1,128.2,12.7z M119.2,21.7c-3.8,0-6.9-3.1-6.9-7c0-3.9,3.1-7,7-6.9
			c1.9,0,3.6,0.8,4.9,2l-4.7,3.4c0,0-0.1,0.1,0,0.1l0.2,0.2c0,0,0.1,0.1,0.1,0l4.7-3.4c0,0,0,0,0,0c1.1,1.2,1.8,2.9,1.7,4.6
			C126.2,18.6,123,21.7,119.2,21.7z"/>
		<polygon class="st0" points="64.1,5.9 64.1,8.1 71.4,8.1 71.4,23.6 73.7,23.6 73.7,8.1 81.1,8.1 81.1,5.9 		"/>
		<path class="st0" d="M42.3,9.1C39.6,6,36.8,5,33.1,5.8C29.4,6.5,27,9,26,12.7c-0.1,0.5-0.2,0.9-0.3,1.4c0,0.4,0,0.8,0,1.3
			c0.1,0.6,0.2,1.1,0.3,1.7c1,4,4.7,7.1,9.5,6.9c4-0.2,7.7-3.3,8.5-7.4c0.3-1.5,0.2-3.1-0.3-4.6C43.7,11.5,43.1,10.1,42.3,9.1z
			 M35,21.7c-3.8,0-7-3.1-7-7c0-3.8,3.1-7,6.9-7c3.9,0,7,3.1,7,6.9C42,18.6,38.9,21.7,35,21.7z"/>
		<path class="st0" d="M56.7,5.6c-3.4-0.4-6.2,0.7-8.4,3.4c-0.9,1.1-1.4,2.5-1.6,3c-0.2,0.7-0.4,1.4-0.4,2.2h0v13.5h2.2v-6.8
			c0.9,1,2,1.9,3.4,2.4c5.5,2.3,11.8-1.2,12.6-7.1C65.4,11,61.8,6.2,56.7,5.6z M55.5,21.7c-3.6,0-6.5-2.7-6.9-6.2v-1.4h0
			c0.3-3.5,3.3-6.3,6.9-6.4c3.8,0,7,3.1,7,7C62.5,18.5,59.4,21.7,55.5,21.7z"/>
		<path class="st0" d="M123.5,12c0,0-0.1-0.1-0.1,0l-6.8,4.9c0,0-0.1,0.1,0,0.1l0.2,0.2c0,0,0.1,0.1,0.1,0l6.8-4.9
			c0,0,0.1-0.1,0-0.1L123.5,12z"/>
		<path class="st0" d="M117.4,13.5c0,0,0.1,0.1,0.1,0l4.7-3.4c0,0,0.1-0.1,0-0.1l-0.2-0.2c0,0-0.1-0.1-0.1,0l-4.7,3.4
			c0,0-0.1,0.1,0,0.1L117.4,13.5z"/>
	</g>
	<path class="st0" d="M38,69.7L22.5,32.3c-0.1-0.3-0.3-0.6-0.5-0.8c-0.2-0.2-0.6-0.3-1.2-0.3H18c-0.6,0-1,0.1-1.2,0.3
		c-0.2,0.2-0.4,0.5-0.5,0.8L0.8,69.7c-0.1,0.2-0.2,0.6-0.1,0.9c0.2,0.7,0.5,1,1.5,1h4.5c0.9,0,1.5-0.5,1.9-1.4l1.6-4.1h18.5l1.6,4.1
		c0.4,0.9,1,1.4,1.9,1.4h4.5c1,0,1.4-0.3,1.5-1C38.2,70.3,38,69.9,38,69.7z M12.7,59.6l6.7-17.3h0l6.7,17.3H12.7z"/>
	<path class="st0" d="M110.8,52.3h9.6c0.4,0,0.8,0.1,1,0.4c0.3,0.3,0.4,0.7,0.4,1.2v3.6c0,0.4-0.1,0.8-0.4,1
		c-0.2,0.3-0.6,0.4-1.1,0.4h-9.6v11.4c0,0.5-0.1,0.8-0.4,1.1c-0.3,0.2-0.6,0.4-1,0.4H105c-0.5,0-0.8-0.1-1.1-0.4
		c-0.3-0.3-0.4-0.6-0.4-1V32.7c0-1,0.5-1.4,1.4-1.4h22.9c0.4,0,0.7,0.1,1,0.4c0.3,0.3,0.4,0.6,0.4,1v3.6c0,0.5-0.1,0.8-0.4,1.1
		c-0.3,0.3-0.6,0.4-1,0.4h-17V52.3z"/>
</g>
</svg>
